<svg t="1675150073000" class="icon" viewBox="0 0 1024 1024" version="1.1"
    xmlns="http://www.w3.org/2000/svg" p-id="7359" width="200" height="200">
    <path
        d="M211 643.8c-18.5 0-33.5 15-33.5 33.4s15 33.4 33.5 33.4h156.1c18.5 0 33.4-15 33.4-33.4s-15-33.4-33.4-33.4H211z m234.1-145c0-18.5-15-33.4-33.5-33.4H211c-18.5 0-33.5 15-33.5 33.4 0 18.5 15 33.4 33.5 33.4h200.7c18.4 0.1 33.4-14.9 33.4-33.4zM868.8 64H155.2C106 64 66 103.9 66 153.2v713.6c0 49.3 39.9 89.2 89.2 89.2h446v-67H177.5c-24.6 0-44.6-20-44.6-44.6v-669c0-24.6 20-44.6 44.6-44.6h669c24.6 0 44.6 20 44.6 44.6v423.7H958v-446c0-49.2-40-89.1-89.2-89.1z m-89.2 256.4c0-18.5-15-33.4-33.4-33.4H211c-18.5 0-33.5 15-33.5 33.4 0 18.5 15 33.4 33.5 33.4h535.2c18.4 0.1 33.4-14.9 33.4-33.4zM830 791.8c24.2-31.8 38.8-71.5 38.8-114.6 0-104.7-84.9-189.5-189.5-189.5-104.7 0-189.5 84.9-189.5 189.5s84.9 189.5 189.5 189.5c37.4 0 72.1-11 101.5-29.6l113.1 113.1c13.1 13.1 34.2 13.1 47.3 0 13.1-13.1 13.1-34.2 0-47.3L830 791.8z m-59.8-39.6c-12.5 15.4-19.1 18.9-26.5 24.2-18.6 12.1-40.6 19.3-64.4 19.3-66 0-119.4-54-118.4-120.2 0.9-63.8 53-115.9 116.8-116.8 66.2-0.9 120.1 52.5 120.1 118.5-0.1 28.6-10.7 54.5-27.6 75z"
        fill="#000000" p-id="7360"></path>
</svg>